<svg width="30" height="32" viewBox="0 0 30 32" fill="none" xmlns="http://www.w3.org/2000/svg">
<g filter="url(#filter0_d_1363_232)">
<path d="M25.0781 17.0156C24.1875 16.0312 22.4531 14.5781 22.4531 9.75C22.4531 6.14062 19.9219 3.23438 16.4531 2.48438V1.5C16.4531 0.703125 15.7969 0 15 0C14.1562 0 13.5 0.703125 13.5 1.5V2.48438C10.0312 3.23438 7.5 6.14062 7.5 9.75C7.5 14.5781 5.76562 16.0312 4.875 17.0156C4.59375 17.2969 4.45312 17.6719 4.5 18C4.5 18.7969 5.0625 19.5 6 19.5H23.9531C24.8906 19.5 25.4531 18.7969 25.5 18C25.5 17.6719 25.3594 17.2969 25.0781 17.0156ZM7.64062 17.25C8.625 15.9844 9.70312 13.7812 9.75 9.79688C9.75 9.79688 9.75 9.79688 9.75 9.75C9.75 6.89062 12.0938 4.5 15 4.5C17.8594 4.5 20.25 6.89062 20.25 9.75C20.25 9.79688 20.2031 9.79688 20.2031 9.79688C20.25 13.7812 21.3281 15.9844 22.3125 17.25H7.64062ZM15 24C16.6406 24 17.9531 22.6875 17.9531 21H12C12 22.6875 13.3125 24 15 24Z" fill="#01060C"/>
</g>
<defs>
<filter id="filter0_d_1363_232" x="0.453125" y="0" width="29.0469" height="32" filterUnits="userSpaceOnUse" color-interpolation-filters="sRGB">
<feFlood flood-opacity="0" result="BackgroundImageFix"/>
<feColorMatrix in="SourceAlpha" type="matrix" values="0 0 0 0 0 0 0 0 0 0 0 0 0 0 0 0 0 0 127 0" result="hardAlpha"/>
<feOffset dy="4"/>
<feGaussianBlur stdDeviation="2"/>
<feComposite in2="hardAlpha" operator="out"/>
<feColorMatrix type="matrix" values="0 0 0 0 0 0 0 0 0 0 0 0 0 0 0 0 0 0 0.25 0"/>
<feBlend mode="normal" in2="BackgroundImageFix" result="effect1_dropShadow_1363_232"/>
<feBlend mode="normal" in="SourceGraphic" in2="effect1_dropShadow_1363_232" result="shape"/>
</filter>
</defs>
</svg>
