<svg width="18" height="10" viewBox="0 0 18 10" fill="none" xmlns="http://www.w3.org/2000/svg">
<path d="M17.0312 0.6875C16.7812 1.75 14.5312 4.9375 14.5312 4.9375C14.3438 5.25 14.25 5.40625 14.5312 5.75C14.6562 5.90625 17 8.15625 17.3438 9.21875C17.5 9.75 17.25 10 16.7188 10H14.875C14.1875 10 13.9688 9.46875 12.7188 8.21875C11.625 7.15625 11.1562 7 10.875 7C10.3125 7 10.4062 7.21875 10.4062 9.3125C10.4062 9.75 10.25 10 9.09375 10C7.15625 10 5 8.84375 3.46875 6.65625C1.1875 3.4375 0.5625 1.03125 0.5625 0.53125C0.5625 0.25 0.6875 0 1.1875 0H3.03125C3.5 0 3.6875 0.21875 3.875 0.71875C4.78125 3.34375 6.28125 5.65625 6.90625 5.65625C7.15625 5.65625 7.25 5.53125 7.25 4.9375V2.21875C7.1875 0.96875 6.53125 0.875 6.53125 0.4375C6.53125 0.21875 6.6875 0 7 0H9.875C10.2812 0 10.4062 0.21875 10.4062 0.6875V4.34375C10.4062 4.71875 10.5938 4.875 10.6875 4.875C10.9375 4.875 11.125 4.71875 11.5625 4.3125C12.875 2.8125 13.8125 0.53125 13.8125 0.53125C13.9375 0.25 14.1562 0 14.625 0H16.4688C17.0312 0 17.125 0.3125 17.0312 0.6875Z" fill="#3971FF"/>
</svg>
