<svg width="24" height="24" viewBox="0 0 24 24" fill="none" xmlns="http://www.w3.org/2000/svg">
<path d="M17.0388 0H13.6288C10.1741 0 6.68825 2.55105 6.68825 8.2503C6.68825 11.2024 7.93947 13.5016 10.233 14.8091L6.03507 22.4072C5.8361 22.7665 5.83092 23.1737 6.0212 23.4965C6.20697 23.8118 6.54657 24 6.9296 24H9.05292C9.53532 24 9.91152 23.7668 10.0918 23.3584L14.0277 15.66H14.315V23.0405C14.315 23.5607 14.7539 24 15.2733 24H17.1285C17.711 24 18.1178 23.5932 18.1178 23.0107V1.05015C18.1179 0.43185 17.6742 0 17.0388 0ZM14.3151 12.2403H13.8084C11.8436 12.2403 10.6706 10.6365 10.6706 7.95015C10.6706 4.60988 12.1524 3.41978 13.5391 3.41978H14.3151V12.2403Z" fill="#01060C"/>
</svg>
